<?xml version="1.0" encoding="utf-8"?>
<!-- Generator: Adobe Illustrator 26.3.0, SVG Export Plug-In . SVG Version: 6.00 Build 0)  -->
<svg version="1.1" id="Capa_1" xmlns="http://www.w3.org/2000/svg" xmlns:xlink="http://www.w3.org/1999/xlink" x="0px" y="0px"
	 viewBox="0 0 636.8 527.9" style="enable-background:new 0 0 636.8 527.9;" xml:space="preserve">
<style type="text/css">
	.st0{fill:#FF0000;}
	.st1{fill:#FEDC34;}
	.st2{fill:#212121;}
	.st3{fill:#FFFFFF;}
	.st4{fill:#FAD834;}
</style>
<g>
	<g>
		<rect x="13.1" y="9" class="st0" width="609.4" height="9"/>
		<rect x="618.7" y="9" class="st0" width="9" height="500.8"/>
		<path class="st0" d="M627.7,518.9c-199.7,0-399.4,0-599.1,0c-5.2,0-10.3,0-15.5,0c0-3,0-6.1,0-9.1h614.6V518.9z"/>
		<rect x="58.1" y="9" class="st0" width="0.8" height="9"/>
		<rect x="595" y="9" class="st0" width="1.4" height="9"/>
		<rect x="618.7" y="30.8" class="st0" width="9" height="1.4"/>
		<path class="st1" d="M627.7,9c-201,0-402.1,0-603.1,0C19.4,9,14.2,9,9,9c0-3,0-6,0-9h618.7L627.7,9L627.7,9z"/>
		<path class="st1" d="M627.7,519.1c0-168.7,0-337.4,0-506.1c0-4.4,0-8.7,0-13.1c3.1,0,6.2,0,9.3,0V519L627.7,519.1L627.7,519.1z"/>
		<path class="st1" d="M636.8,527.9c-204,0-408.1,0-612,0c-5.3,0-10.5,0-15.8,0c0-3,0-6,0-9h627.8V527.9L636.8,527.9z"/>
		<rect x="9" y="9" class="st0" width="9.3" height="509.9"/>
		<path class="st1" d="M0,527.9C0,356.4,0,184.8,0,13.3C0,8.9,0,4.4,0,0c3,0,6,0,9,0v527.9L0,527.9L0,527.9z"/>
		<g>
			<polygon points="17.7,18.1 622.6,509.8 622.6,18.1 			"/>
			<polygon class="st2" points="622.6,509.8 17.7,18.1 18.3,510.9 			"/>
		</g>
	</g>
	<path class="st3" d="M-88,290.9"/>
	<g>
		<g>
			<path class="st4" d="M213.1,232.5c0,3.3-0.1,6.7,0,10c0.1,2.3-0.7,3.2-3.2,3.4c-6.3,0.6-12,2.8-16.7,7
				c-9.8,8.8-9.1,21.6,1.6,29.6c4.6,3.4,9.8,5.2,15.5,5.7c2,0.2,2.8,0.8,2.8,2.8c0,7,0,14,0.1,21c0,1.6-0.5,2.4-2.3,2.4
				c-19.5,0.4-47.2-11.2-55.7-34.1c-5.2-14-2.4-27.1,7.2-38.4c12.2-14.4,28.3-21.5,47.6-22.3c2.5-0.1,3.4,0.7,3.3,3.1
				C213.1,225.8,213.1,229.1,213.1,232.5L213.1,232.5z"/>
			<path class="st3" d="M235.5,269.1c0,5.1,0,9.8,0,14.4c0,3.4,1.2,6.3,4.3,8.2c1.9,1.1,3.2,1,4.4-1.1c3.6-6.4,7.5-12.6,11.1-18.9
				c1.1-1.8,2.1-2.6,4.3-2.5c4.2,0.2,8.5,0.1,13.6,0.1c-5.5,8.9-10.5,17.1-15.7,25.4c0.9,0.5,1.5,0.9,2.1,1.1
				c8.3,3.4,12.7,9.8,13.1,18.6c0.3,5,0.1,10,0.1,15.3c-4.8,0-9.5,0-14.6,0c0-4.2,0.2-8.2-0.1-12.3c-0.2-2.6-0.7-5.4-1.8-7.7
				c-0.7-1.5-2.9-2.4-4.5-3.3c-1.7-0.9-2.9-0.2-3.9,1.6c-3.8,6.5-7.8,12.9-11.5,19.4c-1.1,2-2.4,2.7-4.7,2.6c-4.1-0.2-8.2,0-13.2,0
				c5.5-9,10.5-17.4,15.8-26c-1.5-0.9-2.7-1.6-3.9-2.4c-6.5-4.4-9.3-10.8-9.6-18.4c-0.2-3.8-0.2-7.8,0-11.6c0.1-0.9,1.2-2.3,2-2.4
				C226.9,268.9,230.9,269.1,235.5,269.1z"/>
			<path class="st3" d="M389.6,329.9c-4.7,0-9.2,0.1-13.8-0.1c-0.7,0-1.6-1.1-1.8-1.8c-1-2.5-1.6-5.1-2.6-7.6c-0.4-1-1.9-2-2.9-2.1
				c-7.1-0.2-14.2-0.2-21.3,0c-0.9,0-2.2,1.1-2.7,2c-1.1,2.4-1.9,4.8-2.6,7.3c-0.5,1.7-1.4,2.4-3.2,2.4c-4.1-0.1-8.1,0-12.6,0
				c0.2-1.1,0.3-2,0.7-2.8c6-16.4,12.1-32.9,18.2-49.3c3.3-8.7,11.6-12.2,19.8-7.9c2.1,1.1,4.4,3.2,5.2,5.4
				c6.7,17.6,13.1,35.3,19.6,52.9C389.7,328.5,389.6,329,389.6,329.9z M358.9,280.9c-0.6,0-1.1,0-1.6,0.1
				c-2.8,8.2-5.6,16.3-8.4,24.7c6.1,0,11.8,0,18,0C364.2,297.2,361.6,289.1,358.9,280.9z"/>
			<path class="st3" d="M292.9,312.8c0,5.9,0,11.3,0,17c-4.6,0-8.8,0.1-13.1-0.1c-0.6,0-1.1-1-1.5-1.6c-0.2-0.4-0.1-1.1-0.1-1.6
				c0-18,0.1-36.1,0-54.1c0-2.7,0.8-3.5,3.5-3.4c7.9,0.2,15.9-0.2,23.8,0.2c17.5,0.8,27,19.2,17.6,33.8c-4,6.2-9.9,9.4-17.2,9.8
				C301.8,313,297.6,312.8,292.9,312.8z M293.1,300.2c0.7,0.1,1.4,0.2,2,0.2c3,0,6,0.2,9-0.2c4.7-0.5,7.8-4.2,7.9-9.1
				c0.2-4.6-2.6-8.8-7.1-9.5c-3.8-0.5-7.8-0.1-11.8-0.1C293.1,287.9,293.1,294,293.1,300.2z"/>
			<path class="st3" d="M310.1,199.1c0,4.1,0,7.8,0,11.8c-1.1,0.1-2.3,0.2-3.4,0.2c-6.7,0-13.3,0-20,0c-4.6,0-6.9,2.1-6.9,5.9
				c0,3.5,2.4,5.5,6.8,5.6c3.3,0,6.7-0.1,10,0.1c10.2,0.4,17.6,7.8,17.6,17.7c0.1,11.3-6.9,19.2-17.6,19.5
				c-8.8,0.2-17.6,0.1-26.4,0.1c-1.8,0-2.4-0.7-2.4-2.4c-0.4-9.9-0.5-9.9,9.2-9.9c5.3,0,10.5,0.1,15.8,0c4.3-0.1,7.2-2.7,7.1-6.3
				c-0.1-3.5-2.8-5.8-7.1-5.9c-3.4-0.1-6.9,0.1-10.3-0.2c-10.3-0.7-17.2-8.1-17.1-18.1s7.3-17.6,17.3-18
				C291.8,198.9,300.8,199.1,310.1,199.1z"/>
			<path class="st3" d="M502.6,269.1c0,4.2,0,7.9,0,12.1c-4,0-7.8,0-11.7,0c-4.1,0-8.2-0.1-12.2,0c-4.2,0.1-6.4,2-6.4,5.6
				c-0.1,3.5,2.2,5.6,6.3,5.7c3.4,0.1,6.9-0.1,10.3,0.1c10.9,0.6,17.9,7.7,17.7,18.1c-0.2,11.1-7.3,18.7-18.2,18.9
				c-8.5,0.2-17,0-25.5,0.1c-1.9,0-2.7-0.6-2.6-2.6c0.1-3,0-6,0-9.4c1.4-0.1,2.4-0.2,3.6-0.2c7,0,14,0,21,0c4.6,0,7.4-2.4,7.4-6.2
				c0-3.7-2.8-6-7.2-6.1c-3.4-0.1-6.9,0.1-10.3-0.2c-10.4-0.8-17.1-8.1-17-18.2s7.5-17.5,18-17.7
				C484.6,269.1,493.4,269.1,502.6,269.1z"/>
			<path class="st3" d="M319.5,199.5c10.4,0,20.7-0.9,30.7,0.2c10.7,1.1,18,11.4,17.3,22c-0.7,11.5-8.6,20-19.8,21
				c-3.6,0.3-7.3,0.3-10.9,0.2c-2.4-0.1-3.3,0.7-3.2,3.1c0.2,4.5,0.1,9,0.1,13.7c-4.9,0-9.5,0-14.2,0
				C319.5,239.4,319.5,219.4,319.5,199.5z M340.1,230.5c1.4,0,2.8,0.1,4.2,0c5.3-0.4,8.6-3.9,8.7-9.3c0.2-5.5-3.1-9.5-8.4-10
				c-2.9-0.3-5.8-0.1-8.7-0.2c-1.8-0.1-2.1,0.9-2.1,2.4c0.1,3.7,0,7.3,0,10.9C333.7,230.7,333.8,230.7,340.1,230.5z"/>
			<path class="st3" d="M261.7,199.4c0,3.8,0,7.5,0,11.6c-1,0.1-2,0.2-3,0.2c-6,0-12.1,0-18,0c-0.9,0-1.7,0-2.6,0.1
				c-3.5,0.5-5.6,2.9-5.5,6c0.2,3,2.4,5.1,5.8,5.3c5.6,0.2,11.2,0.2,16.8,0c3-0.1,4,0.9,3.8,3.8c-0.2,2.8-0.1,5.6-0.1,8.7
				c-4.7,0-9.1,0-13.5,0c-2.4,0-4.7-0.1-7.1,0.2c-3.5,0.3-5.8,3-5.7,6.3c0.1,3.2,2.3,5.6,5.8,5.7c6.4,0.2,12.9,0.1,19.3,0.2
				c4.2,0,4.2,0,4.2,4.2c0,8.2,0,8.2-8.3,8.2c-5,0-9.9-0.2-14.9,0c-8.4,0.3-15.1-2.7-18.9-10.3c-3.8-7.6-1.7-14.4,4.1-20.6
				c-0.9-1.2-1.9-2.3-2.7-3.5c-6.6-10.2-1.3-24.2,10.7-25.9C241.6,198.4,251.6,199.4,261.7,199.4z"/>
			<path class="st3" d="M429.2,318c0,1.2,0,2.2,0,3.2c0,2.7,0,5.4,0,8c-13.7,3.4-23.8-6.2-23.9-16.2c-0.2-9.5-0.2-18.9-0.1-28.4
				c0-2.6-0.8-3.3-3.3-3.3c-3.5,0.2-7.1,0-10.6,0.1c-1.9,0.1-2.8-0.5-2.7-2.5c0.2-3,0-6,0-9.4c1.2-0.1,2.3-0.2,3.3-0.2
				c13.6,0,27.3,0.1,41-0.1c2.5,0,3.3,0.7,3.3,3.3c0,8.9,0.1,8.9-8.9,8.9c-7.7,0-7.7,0-7.7,7.5c0,7.1,0,14.2,0,21.3
				c0,6.1,1.2,7.3,7.3,7.6C427.5,317.7,428.2,317.8,429.2,318z"/>
		</g>
		<g>
			<path class="st0" d="M213.2,219.5c0,0-54.3,0.9-58.1,44.8s57.9,50.4,57.9,50.4v15.1c0,0-70.8,3.2-76.8-65c0,0-1.7-59,77.1-61.1
				L213.2,219.5L213.2,219.5z"/>
		</g>
		<g>
			<ellipse class="st0" cx="447.6" cy="278" rx="9" ry="9"/>
			<polyline class="st0" points="443.3,286 439.2,299.1 451,299.1 456.4,279.6 			"/>
		</g>
	</g>
</g>
</svg>
